<?xml version="1.0" standalone="no"?>
<!DOCTYPE svg PUBLIC "-//W3C//DTD SVG 20010904//EN"
 "http://www.w3.org/TR/2001/REC-SVG-20010904/DTD/svg10.dtd">
<svg version="1.0" xmlns="http://www.w3.org/2000/svg"
 width="526.000000pt" height="498.000000pt" viewBox="0 0 526.000000 498.000000"
 preserveAspectRatio="xMidYMid meet">

<g transform="translate(0.000000,498.000000) scale(0.100000,-0.100000)"
fill="#000000" stroke="none">
<path d="M330 4395 l0 -315 315 0 315 0 0 315 0 315 -315 0 -315 0 0 -315z
m550 -5 l0 -230 -230 0 -230 0 0 230 0 230 230 0 230 0 0 -230z"/>
<path d="M520 4385 l0 -135 135 0 135 0 0 135 0 135 -135 0 -135 0 0 -135z"/>
<path d="M1058 4703 c-2 -5 -4 -24 -3 -43 0 -35 1 -35 48 -38 l47 -3 0 45 0
46 -44 0 c-25 0 -46 -3 -48 -7z"/>
<path d="M1325 4698 c-3 -7 -4 -26 -2 -43 2 -28 -1 -30 -38 -35 -40 -5 -40 -5
-40 -50 l-1 -45 -47 -3 -47 -3 0 -44 0 -44 -47 -3 -48 -3 -2 -220 -2 -220 -68
-2 c-37 0 -76 -2 -85 -2 -14 -1 -18 -10 -18 -46 l0 -45 -44 0 -45 0 -3 48 -3
47 -45 0 -45 0 -5 -95 -5 -95 -38 1 -38 1 3 -41 c3 -36 6 -41 28 -42 42 -1 50
7 50 45 l0 36 63 -1 c133 -1 129 1 125 -41 -3 -37 -4 -38 -43 -38 l-40 0 -3
-47 -3 -48 -89 0 -89 0 -3 -47 -3 -48 -43 0 -42 0 0 -87 0 -88 -50 0 -50 0 0
-45 0 -45 -45 0 -45 0 0 -90 0 -90 45 0 45 0 0 90 0 90 50 0 50 0 0 -50 0 -50
45 0 45 0 0 -85 0 -85 40 0 40 0 0 -50 0 -50 50 0 50 0 0 50 0 50 85 0 85 0 0
-50 0 -50 -40 0 -40 0 0 -40 0 -40 40 0 40 0 0 -45 0 -45 -135 0 -135 0 0 45
0 45 -40 0 -40 0 0 -45 0 -45 -45 0 -45 0 0 -135 0 -135 44 0 45 0 3 -47 c3
-47 3 -48 38 -48 35 -1 35 -2 38 -48 l3 -47 50 0 49 0 0 -40 0 -40 -50 0 -50
0 0 -45 c0 -36 -4 -45 -17 -46 -63 -4 -58 4 -58 -98 l0 -95 35 0 c33 -1 35 -3
38 -38 l3 -38 -40 0 -41 0 0 -50 0 -50 -45 0 -45 0 0 50 0 50 -50 0 -50 0 0
35 c0 21 -5 35 -12 36 -68 7 -73 5 -76 -34 l-3 -37 45 0 46 0 0 -50 0 -50 50
0 50 0 0 -45 0 -45 -50 0 -50 0 0 -90 0 -90 -45 0 -45 0 0 -95 0 -95 45 0 45
0 0 -85 0 -85 -45 0 -45 0 0 -50 0 -50 140 0 140 0 0 50 0 50 40 0 40 0 0 45
0 45 -85 0 -85 0 0 40 0 40 -50 0 -50 0 0 95 0 95 50 0 50 0 0 -45 0 -45 45 0
45 0 0 -50 0 -50 90 0 90 0 0 -40 0 -40 85 0 85 0 0 40 0 40 48 0 47 0 -1 40
c-1 22 -2 45 -3 50 0 6 -21 10 -46 10 l-45 0 0 45 0 45 95 0 95 0 0 -44 0 -45
47 -3 47 -3 1 -47 2 -48 -94 0 c-102 0 -111 -5 -99 -55 7 -26 7 -26 99 -23
l92 3 0 35 c0 33 2 35 40 40 40 5 40 5 40 50 0 45 -1 45 -37 48 -38 3 -47 20
-40 70 3 18 10 22 43 22 l39 0 0 -45 0 -45 90 0 90 0 0 79 c0 44 3 86 6 95 5
13 -2 16 -45 16 l-51 0 0 40 0 40 45 0 c46 0 47 -1 49 -50 1 -22 6 -25 42 -28
l41 -3 -1 38 -1 38 48 3 47 3 0 95 0 94 45 0 c33 0 45 4 46 15 1 8 2 25 3 38
1 20 6 22 56 23 132 3 120 -1 120 49 l0 45 44 0 45 0 3 46 3 46 133 1 132 2 0
-47 0 -48 -85 0 -85 0 0 -45 c0 -51 11 -46 -120 -49 l-65 -1 -3 -87 -3 -88 96
0 95 0 0 50 0 50 40 0 40 0 0 -95 0 -95 -40 0 -40 0 0 -40 0 -40 -50 0 -50 0
0 40 0 40 -45 0 -45 0 0 -40 0 -40 -40 0 -40 0 0 85 0 85 -48 0 -48 0 0 -82 1
-83 -47 -3 -48 -3 0 -49 0 -49 -47 -3 -48 -3 -2 -42 -3 -43 50 0 50 0 0 -90 0
-90 -44 0 -45 0 -5 -42 c-4 -24 -5 -67 -4 -95 l2 -53 48 0 48 0 0 51 0 50 47
-3 48 -3 0 -45 0 -45 48 -3 47 -3 0 50 0 51 40 0 40 0 0 -50 0 -50 45 0 c45 0
45 0 45 -35 0 -28 -4 -35 -20 -36 -11 -1 -24 -3 -30 -4 -5 -1 -17 -3 -25 -4
-13 -1 -15 -24 -15 -141 l0 -140 -88 0 -88 0 0 -40 1 -40 47 0 47 0 3 -47 c3
-43 5 -48 28 -49 14 -1 31 -2 38 -3 7 0 12 -17 12 -46 l0 -45 -40 0 -40 0 0
-40 0 -40 40 0 40 0 0 40 0 40 45 0 45 0 0 -40 0 -40 50 0 50 0 0 40 0 40 -50
0 -50 0 0 45 c0 29 5 45 13 46 6 1 26 3 42 4 17 2 33 3 38 4 4 1 7 21 7 46 l0
45 40 0 40 0 0 -47 0 -48 43 0 42 0 3 88 3 87 94 0 95 0 0 -84 c0 -80 1 -84
24 -90 49 -12 56 -1 56 90 l0 84 95 0 95 0 0 -40 0 -40 -45 0 -45 0 0 -45 c0
-48 1 -48 -67 -47 l-33 0 0 -89 0 -89 135 0 135 0 0 40 0 40 -41 0 -40 0 3 48
3 47 38 -1 37 0 0 88 0 88 50 0 50 0 0 48 0 47 -50 2 -50 1 0 -49 0 -49 -40 0
-40 0 0 95 0 95 89 0 90 0 3 -48 3 -47 40 0 40 0 0 95 0 95 -42 0 -43 -1 0 38
0 38 -50 0 -50 0 0 50 0 50 -40 0 -40 0 0 45 0 45 -95 0 -95 0 0 -45 0 -45
-85 0 -85 0 0 45 0 45 -95 0 -95 0 0 135 0 135 95 0 95 0 0 -45 0 -45 -50 0
-50 0 0 -50 0 -50 95 0 95 0 0 185 0 185 -45 0 -45 0 0 -40 0 -40 -50 0 -50 0
0 85 0 85 50 0 50 0 0 50 0 50 45 0 45 0 0 -50 0 -50 40 0 40 0 0 -45 0 -45
50 0 50 0 0 -135 0 -135 -50 0 -50 0 0 -50 0 -50 95 0 95 0 0 145 0 145 90 0
90 0 0 -50 0 -50 -50 0 -50 0 0 -45 0 -45 185 0 185 0 0 -50 0 -50 -40 0 -40
0 0 -40 0 -40 -95 0 -95 0 0 40 0 40 -50 0 -50 0 0 -40 0 -40 50 0 50 0 0 -45
0 -45 45 0 45 0 0 -50 0 -50 90 0 90 0 0 -85 0 -85 44 0 45 0 3 -47 3 -48 45
0 45 0 3 -47 c3 -47 4 -48 37 -48 29 0 36 -4 41 -25 12 -49 2 -55 -91 -55
l-85 0 0 -95 0 -95 85 0 85 0 2 28 c1 15 2 36 2 46 1 16 9 20 46 20 l45 1 3
-47 3 -47 47 -3 47 -3 0 -38 -1 -37 88 0 88 0 0 40 0 40 -41 0 -40 0 3 47 3
48 85 1 85 1 0 44 0 44 48 3 47 3 0 40 c0 39 0 39 40 39 40 0 40 0 40 -39 l0
-40 47 -3 46 -3 4 -42 c4 -46 6 -45 -62 -47 -29 -1 -30 -3 -33 -49 l-3 -47
-40 0 -39 0 0 45 c0 25 -3 45 -7 46 -5 0 -21 3 -36 5 -44 7 -52 -6 -50 -88 1
-40 2 -76 2 -80 1 -5 82 -8 181 -8 l179 0 3 87 3 88 43 1 42 0 1 -43 c3 -136
0 -128 42 -131 l37 -3 0 85 c0 100 -2 98 118 93 l72 -3 0 48 0 48 40 0 40 0 0
40 0 40 -40 0 -40 0 0 -40 0 -40 -45 0 -45 0 0 40 0 40 -50 0 -50 0 0 -41 0
-40 -37 3 -38 3 0 78 c-1 43 3 81 9 84 5 4 36 5 68 4 88 -4 98 2 98 55 l0 44
45 0 45 0 0 -45 c0 -29 5 -45 13 -46 62 -6 62 -7 65 43 l3 48 -40 0 -41 0 0
45 c0 40 3 45 23 46 12 1 29 2 37 3 13 1 15 29 18 174 l2 172 -135 0 -135 0 0
-39 c0 -39 -1 -40 -37 -43 -37 -3 -38 -4 -38 -46 l0 -42 -142 0 -143 0 0 45 0
45 143 0 143 0 -1 133 0 132 133 3 132 3 0 134 0 135 40 0 40 0 0 183 0 183
-37 -1 -38 0 -3 -48 -3 -47 -95 0 -94 0 0 -47 0 -48 -82 0 -83 0 -3 -37 -3
-38 -95 0 -94 0 0 -50 0 -50 -40 0 -40 0 0 -84 0 -85 -47 -3 -48 -3 0 -45 0
-45 -47 -3 -48 -3 0 90 0 90 47 3 46 3 1 130 1 130 120 2 c66 1 128 2 138 3
14 0 17 7 13 45 l-5 45 50 0 49 0 0 48 0 49 -37 -3 c-21 -2 -43 -3 -49 -3 -6
-1 -10 -20 -10 -43 l1 -43 -129 -3 c-87 -2 -132 1 -136 8 -6 9 -6 51 -1 82 0
3 10 4 21 1 11 -3 31 -2 45 1 24 6 25 9 25 91 l0 85 40 0 40 0 0 -41 0 -40 48
3 c39 2 47 6 48 23 3 56 2 55 49 55 l45 0 0 -40 0 -40 45 0 c29 0 45 5 46 13
1 6 3 41 4 77 1 36 3 70 4 76 1 9 21 11 64 5 4 -1 7 -21 7 -46 l0 -45 135 0
135 0 0 48 0 48 -37 -1 -38 0 -3 48 -3 47 -45 0 -44 0 0 40 0 40 45 0 45 0 0
95 0 95 40 0 40 0 0 45 0 45 -40 0 -40 0 0 90 0 90 40 0 40 0 0 45 0 45 -40 0
-40 0 0 40 0 40 40 0 40 0 0 50 0 50 -40 0 -40 0 0 95 0 95 40 0 c40 0 40 0
40 38 0 37 -1 38 -37 37 -37 0 -38 -1 -41 -38 -3 -37 -4 -37 -47 -37 -43 0
-44 0 -47 38 -3 33 -6 37 -33 38 -16 1 -38 2 -47 3 -14 1 -18 10 -18 46 l0 45
51 0 50 0 -3 48 -3 47 -85 5 -85 5 1 80 2 80 36 3 36 3 0 -45 c0 -48 0 -48 55
-48 14 0 30 0 35 1 6 1 10 21 10 46 l0 45 -50 0 -50 0 0 48 0 49 -174 -5 c-96
-2 -195 -1 -220 2 l-46 7 0 85 0 84 -45 0 c-42 0 -51 -6 -46 -34 1 -4 -1 -17
-4 -27 -5 -15 -16 -19 -51 -19 l-44 0 0 85 0 85 -40 0 -40 0 0 -85 0 -85 41 0
40 0 -3 -47 c-3 -48 -3 -48 -40 -51 -38 -3 -38 -4 -38 -48 l0 -44 -180 0 -180
0 0 95 0 95 34 0 c33 0 35 2 38 38 3 37 3 37 51 40 l47 3 0 -40 0 -40 -47 -3
-48 -3 0 -45 0 -45 95 0 95 0 2 55 c1 30 2 112 2 183 l1 127 45 0 45 0 0 40 0
40 -45 0 c-46 0 -47 -1 -49 -50 -1 -23 -6 -25 -48 -28 l-48 -3 0 85 0 85 -47
3 -48 3 0 93 1 92 -38 0 -38 0 0 -95 0 -95 -50 0 -50 0 0 50 0 50 -45 0 -45 0
0 45 0 45 -40 0 -40 0 0 -45 0 -45 -50 0 -50 0 0 -50 0 -50 -45 0 -45 0 0 95
0 95 -50 0 -50 0 0 -45 0 -45 -135 0 -135 0 0 45 0 45 -180 0 -180 0 0 -45 0
-45 -40 0 -40 0 0 45 0 45 -95 0 -95 0 0 -45 0 -45 -40 0 -40 0 0 45 0 45 -47
0 -48 0 2 -87 c1 -49 2 -91 2 -95 1 -5 21 -8 46 -8 l45 0 0 -85 0 -85 -48 0
-48 0 1 38 0 37 -134 0 -135 0 0 -35 c-1 -35 -2 -35 -48 -38 l-48 -3 0 -50 0
-49 -85 0 c-97 0 -88 11 -85 -107 l1 -63 -50 0 -51 0 0 84 0 85 48 3 c41 3 47
6 50 27 2 12 1 34 -2 47 -6 21 -12 24 -51 24 l-45 0 0 39 0 40 48 3 47 3 -1
43 -1 43 40 -3 c40 -3 41 -4 41 -43 1 -40 1 -40 -41 -43 -42 -3 -42 -3 -41
-43 l0 -39 42 0 42 0 -3 40 -3 40 50 0 50 0 0 45 0 44 88 3 87 3 2 40 c1 22 2
43 2 48 1 4 21 7 46 7 l45 0 0 45 0 45 -89 0 -89 0 2 -45 1 -45 -47 0 -48 0 0
45 0 45 -45 0 c-27 0 -47 -5 -50 -12z m95 -128 l0 -50 -44 0 c-26 0 -46 5 -48
13 -4 10 -3 55 1 80 0 4 21 7 46 7 l45 0 0 -50z m730 -45 l0 -95 40 0 40 0 0
95 0 95 180 0 180 0 0 -50 0 -50 50 0 50 0 0 -45 0 -45 45 0 45 0 0 45 0 45
90 0 90 0 0 -45 0 -45 45 0 45 0 0 45 0 45 50 0 50 0 0 50 0 50 40 0 40 0 0
-50 0 -50 -40 0 -40 0 0 -44 c0 -44 0 -45 38 -48 l37 -3 3 -87 3 -88 -91 0
-90 0 0 -85 0 -85 -45 0 -45 0 0 -95 0 -95 45 0 45 0 0 45 0 45 50 0 50 0 0
90 0 90 40 0 40 0 0 -40 0 -40 45 0 45 0 0 40 0 40 50 0 50 0 0 45 0 45 -50 0
-50 0 0 90 0 90 85 0 c91 0 87 3 89 -55 1 -17 9 -21 49 -23 l47 -3 0 -50 0
-49 -50 0 -50 0 0 -45 c0 -45 0 -45 -35 -45 -34 0 -35 -1 -35 -40 l0 -40 -50
0 -50 0 0 -45 c0 -29 -5 -46 -12 -47 -7 0 -44 -2 -83 -2 l-70 -1 -3 -47 -3
-48 135 0 135 0 3 -47 c3 -46 4 -48 38 -53 20 -3 35 -10 34 -17 -1 -7 -2 -24
-3 -38 -1 -18 -7 -25 -20 -25 -38 0 -51 11 -51 45 0 18 -6 35 -12 38 -7 2 -50
5 -95 6 l-83 2 0 -46 c0 -42 2 -46 23 -45 63 6 67 3 67 -45 l0 -45 85 0 c81 0
85 1 86 23 1 12 1 26 0 31 -1 4 1 16 4 26 6 17 19 19 183 17 l177 -2 3 -92 c3
-98 4 -96 -48 -97 -21 -1 -25 -6 -28 -38 -3 -38 -4 -38 -48 -38 -24 0 -45 -3
-45 -7 -4 -24 -5 -70 -1 -80 3 -9 30 -13 88 -13 l84 0 0 50 0 50 95 0 95 0 0
35 c0 26 4 35 18 36 9 1 22 2 27 4 6 1 16 3 23 3 7 1 12 18 12 47 l0 45 -40 0
-40 0 0 -50 0 -50 -46 2 c-52 2 -59 11 -50 63 7 34 8 35 51 35 l45 0 0 50 0
50 -44 -6 -44 -5 -4 38 c-3 21 -4 40 -2 42 2 2 21 5 41 6 21 1 41 3 46 4 4 0
7 21 7 46 l0 45 40 0 40 0 0 -44 c0 -38 -3 -45 -24 -50 -14 -3 -32 -3 -40 0
-13 5 -16 -2 -16 -34 0 -23 5 -42 13 -44 19 -7 143 -2 156 7 8 4 11 33 10 83
l-2 77 46 3 46 3 3 -88 c3 -96 -2 -89 68 -92 l25 -1 0 -127 0 -128 38 -3 37
-3 0 -50 0 -50 -37 3 c-38 3 -38 3 -38 48 l0 45 -48 3 -47 3 0 -50 0 -51 -45
0 -45 0 -1 63 c-2 56 -3 70 -8 102 0 6 -21 10 -46 11 l-45 1 0 -39 c0 -38 0
-38 -40 -38 l-40 0 0 -145 0 -145 -95 0 -95 0 0 -40 0 -40 48 0 47 0 0 -45 0
-45 -47 0 -48 0 0 -91 0 -90 48 3 c47 3 47 3 47 38 0 35 0 35 48 38 l47 3 0
50 0 49 40 0 40 0 0 -50 0 -50 50 0 50 0 0 135 0 135 45 0 45 0 0 50 0 50 45
0 c29 0 45 -4 46 -12 0 -7 2 -30 3 -50 l3 -38 -49 0 -48 0 0 -85 0 -85 48 0
49 0 -2 -47 -1 -48 -92 -3 c-98 -3 -93 0 -96 -57 -1 -19 -10 -20 -136 -25
l-135 -5 0 -220 c0 -211 -1 -220 -20 -225 -11 -3 -32 -4 -47 -2 l-28 4 0 224
0 224 -135 0 -135 0 0 39 0 40 47 3 47 3 -3 48 -3 47 91 0 91 0 0 45 0 45 -40
0 -40 0 0 40 0 40 -47 0 -48 0 -1 -83 0 -82 -47 -3 -47 -3 0 86 0 86 -47 -3
-48 -3 0 -130 0 -130 -38 -3 -37 -3 0 50 0 51 -95 0 -95 0 0 45 0 45 45 0 45
0 0 40 0 40 50 0 50 0 0 95 0 95 85 0 85 0 0 88 0 87 -47 0 -48 -1 0 -37 c0
-36 -1 -37 -37 -37 -35 0 -37 2 -40 37 -3 37 -3 37 -50 38 l-48 2 0 -39 0 -38
-45 0 -45 0 0 -50 0 -50 45 0 45 0 0 -45 0 -45 -45 0 -45 0 0 -50 0 -50 -40 0
-40 0 0 230 0 230 -50 0 -50 0 0 -135 0 -135 -45 0 -44 0 -3 88 c-3 79 -5 87
-23 88 -11 1 -50 2 -87 3 l-68 1 0 45 0 45 -135 0 -135 0 0 -85 0 -85 -95 0
-95 0 0 -50 0 -50 -45 0 -45 0 0 -45 0 -45 -175 0 -175 0 0 -50 0 -50 40 0 40
0 0 -40 0 -40 95 0 95 0 0 -95 0 -95 -50 0 -50 0 0 -40 0 -40 50 0 50 0 0 -45
0 -45 40 0 40 0 0 85 0 85 45 0 45 0 0 50 0 50 -45 0 -45 0 0 85 0 85 45 0 45
0 0 50 0 50 50 0 50 0 0 45 0 45 85 0 85 0 0 50 0 50 95 0 95 0 0 -95 0 -95
135 0 135 0 0 -50 0 -50 -230 0 -230 0 0 -40 0 -40 -40 0 -40 0 0 -45 0 -45
175 0 175 0 0 45 0 45 95 0 95 0 0 -44 0 -45 48 -3 47 -3 3 -47 3 -48 -50 0
-51 0 0 50 0 50 -45 0 -45 0 0 -90 0 -90 95 0 95 0 0 -45 0 -45 85 0 85 0 0
45 0 45 -45 0 -45 0 0 40 0 40 45 0 45 0 0 -40 0 -40 85 0 85 0 0 -45 c0 -45
0 -45 -35 -45 l-35 0 0 -50 0 -50 35 0 c21 0 35 -5 35 -12 0 -7 2 -46 3 -85
l3 -73 -38 0 -37 0 -3 -47 -3 -48 -47 -3 -48 -3 0 -85 0 -84 -46 0 -45 0 3
-47 3 -48 128 0 c106 0 127 -3 128 -15 1 -13 1 -134 -1 -168 0 -8 -10 -13 -22
-12 -49 4 -48 7 -48 -130 l0 -130 34 0 c27 0 35 -5 40 -24 13 -54 8 -56 -175
-56 l-169 0 0 40 0 40 85 0 86 0 -3 133 -3 132 -40 0 c-39 0 -40 -1 -43 -38
l-3 -37 -89 0 -89 0 -3 38 c-3 37 -3 37 -45 35 l-43 -1 0 49 0 49 -49 0 -50 0
-3 47 c-3 45 -5 47 -33 49 -16 1 -33 2 -37 3 -5 0 -8 21 -8 46 l0 45 -45 0
-45 0 0 40 0 40 85 0 85 0 0 -89 0 -89 93 1 92 2 3 48 3 47 -45 0 -46 0 0 40
0 40 95 0 95 0 0 95 0 95 -50 0 -50 0 0 -45 c0 -29 -4 -45 -12 -45 -7 0 -67
-1 -133 -2 l-120 -2 -3 47 -3 47 40 0 41 0 0 40 0 40 50 0 50 0 0 -40 0 -40
45 0 45 0 0 40 0 40 50 0 50 0 0 -40 0 -40 40 0 40 0 0 40 0 40 45 0 45 0 0
-40 0 -40 50 0 50 0 0 85 0 85 -185 0 -185 0 0 50 0 50 -45 0 -45 0 0 -50 0
-50 -50 0 -50 0 0 95 0 95 -40 0 -40 0 0 40 0 40 -45 0 -45 0 0 -40 0 -40 -50
0 -50 0 0 -45 0 -45 -40 0 -40 0 0 45 0 45 -45 0 -45 0 0 40 0 40 -50 0 -50 0
0 -85 0 -85 -45 0 -45 0 0 -95 0 -95 45 0 45 0 0 -40 0 -40 -45 0 -45 0 0 -95
0 -95 -40 0 -40 0 0 -40 0 -40 -94 0 -95 0 -3 -47 c-2 -40 -6 -48 -23 -49 -55
-2 -55 -2 -55 -49 l0 -45 -49 0 -48 0 1 41 c2 45 -5 53 -49 55 -16 1 -33 2
-37 3 -5 1 -8 21 -8 46 l0 45 44 0 c48 0 57 -12 50 -67 -3 -28 -2 -29 44 -28
l47 0 3 48 3 47 40 0 39 0 0 84 0 85 43 3 42 3 3 48 3 47 -45 0 -45 0 -3 -47
c-3 -48 -3 -48 -38 -48 -35 0 -35 0 -38 48 l-3 47 -95 0 -94 0 0 -95 0 -95
-45 0 c-51 0 -53 -3 -57 -109 l-3 -65 -128 0 -129 -1 -3 -47 -3 -48 49 0 49 0
0 -45 c0 -50 -7 -47 98 -46 74 0 77 -5 76 -109 l0 -65 -37 -3 c-20 -2 -37 0
-38 5 0 4 -1 26 -2 48 l-2 40 -95 0 -95 0 3 -93 c2 -50 1 -110 -3 -132 -6 -38
-9 -40 -41 -40 -32 0 -34 -2 -34 -34 0 -57 -8 -66 -56 -66 l-44 0 0 89 0 90
-47 3 -47 3 0 43 0 42 -48 0 -48 0 0 -45 0 -45 -40 0 -40 0 0 -40 0 -40 40 0
40 0 0 -50 0 -50 -40 0 -40 0 0 -45 0 -45 40 0 40 0 0 -50 0 -50 -84 0 -85 0
-3 47 -3 48 -48 3 -47 3 0 180 0 179 135 0 135 0 0 50 0 50 -40 0 c-39 0 -40
1 -40 35 0 19 1 35 3 35 1 1 19 3 40 6 l37 6 0 -41 0 -41 49 0 c46 0 50 2 46
22 -9 43 2 56 48 54 l42 -1 3 48 3 47 44 0 c53 0 58 9 53 115 l-3 70 -182 3
-183 2 0 40 0 40 222 2 222 3 -1 23 c0 12 -1 33 -2 46 -1 19 -6 23 -28 20 -27
-3 -56 7 -54 19 1 4 1 23 1 42 0 35 0 35 -45 35 l-45 0 0 40 0 40 85 0 c61 0
85 -4 86 -12 1 -7 2 -24 3 -38 1 -23 6 -25 48 -28 l47 -3 3 -45 3 -46 75 0
c41 0 81 0 88 1 8 1 11 15 9 44 -3 40 -5 42 -40 45 -33 3 -37 7 -43 38 -3 19
-3 57 0 85 l7 49 -51 0 -50 0 0 -45 0 -45 -45 0 c-25 0 -45 1 -46 3 0 1 -2 21
-5 45 l-5 42 51 0 50 0 0 50 0 50 -85 0 c-81 0 -85 -1 -86 -22 -1 -13 -1 -27
0 -32 1 -4 -1 -17 -4 -27 -5 -15 -16 -19 -51 -19 l-44 0 0 50 0 50 -44 0 c-47
0 -53 7 -52 55 l1 30 92 3 c79 2 93 5 98 21 3 11 5 23 4 27 -6 32 2 34 137 34
120 0 135 2 130 16 -3 9 -6 31 -6 50 l0 34 -94 0 -94 0 1 43 2 42 -87 3 -88 3
0 -96 0 -95 -45 0 c-38 0 -45 -3 -50 -23 -4 -13 -5 -30 -3 -38 2 -10 -9 -15
-44 -17 l-48 -3 0 40 0 40 48 3 47 3 0 45 0 45 -47 3 -48 3 0 45 0 44 -40 0
-40 0 0 40 0 40 -95 0 -95 0 0 95 0 95 50 0 50 0 0 50 0 50 45 0 45 0 0 39 c0
38 0 39 38 37 l37 -1 3 48 3 47 -40 0 -41 0 0 44 c0 50 8 55 86 51 27 -2 58
-4 70 -4 13 -1 21 -8 21 -18 -1 -71 0 -73 48 -73 l45 0 0 -45 0 -45 -62 -2
c-35 -1 -78 -1 -95 1 -32 2 -33 1 -33 -39 l0 -40 -40 0 -40 0 0 -50 0 -50 85
0 c74 0 85 2 87 18 0 9 2 26 3 37 1 11 3 26 4 33 1 7 17 12 46 12 l45 0 0 -51
0 -50 48 3 47 3 1 84 2 85 38 0 c38 1 39 0 42 -36 3 -38 4 -38 48 -38 l44 0 0
39 0 39 43 -2 42 -1 3 48 3 47 -89 0 c-80 0 -90 2 -95 19 -7 27 3 71 17 72 6
0 25 2 41 2 27 2 30 6 33 40 3 35 2 37 -27 38 -17 1 -35 3 -41 4 -5 1 -13 3
-18 4 -6 1 -8 36 -3 79 1 10 24 12 93 10 l92 -3 4 -40 c2 -22 5 -41 5 -41 1
-1 38 -4 82 -7 44 -3 81 -6 83 -6 1 -1 2 -17 2 -36 0 -37 9 -41 76 -36 19 2
21 -3 20 -48 l-1 -51 48 0 47 0 0 45 c0 47 -6 51 -62 46 -22 -3 -33 17 -29 57
l3 34 -49 -3 -48 -3 -3 182 -2 183 47 -3 47 -3 -1 -83 c-2 -93 2 -99 62 -88
l35 7 0 84 0 85 40 0 40 0 0 -40 0 -40 45 0 45 0 0 40 0 40 50 0 50 0 0 45 0
45 -135 0 -135 0 0 50 0 50 85 0 85 0 0 128 c0 71 3 132 7 135 3 4 26 7 50 7
l43 0 0 -95z m-730 -405 l0 -40 45 0 c36 0 45 4 46 18 4 58 3 57 42 60 42 4
39 11 39 -103 l0 -70 -94 -3 c-51 -2 -111 -1 -133 2 l-40 6 2 68 c1 37 2 75 3
85 0 14 9 17 45 17 l45 0 0 -40z m-182 -184 l3 -46 -45 0 -46 0 0 44 c0 48 8
56 55 51 28 -2 30 -5 33 -49z m-186 -63 c2 -10 2 -32 0 -49 l-4 -31 -81 2 -82
3 -3 46 -3 46 85 0 c73 0 85 -2 88 -17z m2899 0 c6 -78 13 -71 -73 -75 -43 -2
-83 -1 -88 0 -6 2 -10 24 -10 48 l0 44 85 0 c74 0 85 -2 86 -17z m-2655 -79
c30 -5 32 -9 29 -40 -1 -19 -4 -36 -6 -37 -2 -1 -64 -1 -136 1 -132 3 -133 3
-133 27 0 51 5 53 113 54 55 1 115 -1 133 -5z m2928 -489 l1 -40 -48 -3 -47
-3 0 46 0 46 47 -3 47 -3 0 -40z m456 -95 l0 -50 -45 0 -45 0 0 -85 0 -86 -87
3 -88 3 0 80 0 80 88 3 87 3 0 49 0 50 45 0 45 0 0 -50z m-190 -455 l0 -135
50 0 50 0 0 -45 0 -45 -50 0 -50 0 0 -41 0 -40 -37 3 c-36 3 -38 5 -38 38 0
33 2 35 38 38 37 3 37 4 37 48 0 44 0 44 -34 44 -26 0 -36 5 -41 20 -7 21 -4
229 2 243 2 4 20 7 39 7 l34 0 0 -135z m-3800 -180 l0 -45 -40 0 -40 0 0 45 0
45 40 0 40 0 0 -45z m360 38 c1 -5 2 -63 3 -130 l2 -122 -133 -3 -132 -3 0
133 0 132 130 0 c72 0 130 -3 130 -7z m1638 -124 l-3 -131 -107 1 c-60 0 -119
0 -133 1 l-25 0 0 130 0 130 135 0 136 0 -3 -131z m1092 -49 l0 -180 85 0 c49
0 86 -4 86 -10 1 -5 2 -22 3 -37 l1 -28 -87 -3 -88 -3 0 -47 c0 -43 2 -48 23
-49 60 -1 57 4 57 -96 l0 -93 -37 2 c-21 1 -82 3 -135 3 l-98 1 0 45 0 45 96
0 95 0 -3 48 -3 47 -40 0 -40 -1 -5 181 -5 180 -47 3 -48 3 0 85 0 84 95 0 95
0 0 -180z m538 48 l-3 -131 -130 1 -130 1 -3 131 -3 130 136 0 136 0 -3 -132z
m-1728 -268 l0 -40 -40 0 -40 0 0 40 0 40 40 0 40 0 0 -40z m1000 -1 l0 -40
-47 3 c-46 3 -48 4 -49 33 -1 42 2 45 52 45 l44 0 0 -41z m-2534 -181 c2 -23
1 -65 -2 -93 -5 -48 -6 -50 -34 -49 -61 3 -60 2 -60 49 l0 45 -40 0 -40 0 0
43 c0 24 2 46 5 49 3 3 42 4 87 3 l82 -3 2 -44z m1454 2 l0 -50 40 0 40 0 0
45 c0 25 3 46 8 46 24 4 69 5 80 1 9 -3 12 -39 12 -133 l0 -129 -90 0 -90 0 0
34 c0 40 -18 47 -110 45 -83 -2 -80 -3 -80 46 l0 45 50 0 50 0 0 44 c0 41 2
45 28 49 64 10 62 11 62 -43z m-725 -90 c2 -55 -3 -60 -49 -56 l-41 4 -3 46
-3 47 48 -3 c47 -3 47 -4 48 -38z m533 -92 l3 -38 -45 0 c-45 0 -46 0 -46 33
0 42 2 44 48 43 35 -1 37 -3 40 -38z m2362 -54 l0 -84 -45 0 -45 0 0 -45 0
-45 -50 0 -50 0 0 -40 0 -40 -85 0 -85 0 0 -50 0 -50 -45 0 c-48 0 -50 -3 -46
-62 l2 -28 -90 0 -91 0 0 -50 0 -50 40 0 40 0 0 -40 0 -41 -87 3 -88 3 1 38 0
37 -48 0 -48 0 0 50 0 50 -40 0 -40 0 0 -50 0 -50 -95 0 -95 0 0 -86 0 -85 48
3 47 3 -1 43 -1 42 49 0 48 0 0 -95 0 -95 40 0 40 0 0 50 0 50 45 0 c48 0 46
4 49 -67 1 -26 -2 -28 -46 -31 -47 -3 -48 -4 -48 -38 0 -30 3 -34 28 -35 68
-3 66 -1 66 -49 l1 -45 -47 -3 -48 -3 0 -45 c0 -24 -3 -45 -7 -45 -5 -1 -21
-2 -38 -3 -28 -2 -30 -4 -33 -49 l-3 -47 40 0 41 0 0 44 c0 37 3 44 23 48 12
2 33 1 47 -2 24 -5 25 -8 24 -75 0 -38 -2 -76 -2 -82 -2 -9 -26 -13 -87 -13
l-85 0 0 41 0 40 -47 -3 c-48 -3 -48 -3 -48 -38 0 -35 0 -35 -47 -38 l-48 -3
0 40 0 41 -50 0 -51 0 3 93 3 92 47 3 47 3 3 -48 3 -48 93 -1 92 -1 0 134 0
134 -142 -3 -143 -3 1 -32 c0 -34 1 -33 -56 -37 -11 -1 -16 -15 -18 -48 l-3
-48 -50 0 -49 0 0 85 0 85 -45 0 -45 0 0 50 0 50 45 0 45 0 0 -50 0 -50 88 0
c86 0 89 1 86 22 -1 13 -3 56 -3 96 l-1 72 -130 0 -130 0 0 40 0 40 95 0 95 0
0 95 0 95 85 0 85 0 0 134 0 135 -47 3 -48 3 0 45 0 45 48 3 47 3 0 -50 0 -50
48 -3 47 -3 0 -82 -1 -83 48 0 48 0 0 -50 0 -50 40 0 40 0 0 -45 0 -45 95 0
95 0 0 95 0 95 40 0 40 0 0 -50 0 -50 50 0 50 0 0 90 0 90 45 0 45 0 0 45 0
45 48 0 49 0 -1 -42 c-1 -43 -1 -43 37 -46 l37 -3 0 45 0 46 50 0 50 0 0 84
c0 91 2 94 56 88 l34 -4 0 -84z m-1900 -129 l0 -45 -45 0 -45 0 0 45 0 45 45
0 45 0 0 -45z m270 -85 l0 -40 -45 0 -45 0 0 40 0 40 45 0 45 0 0 -40z m-1000
-90 l0 -50 -45 0 -45 0 0 -135 0 -135 45 0 44 0 3 88 3 87 48 3 47 3 0 -90 0
-91 -50 0 -50 0 0 -45 0 -45 90 0 90 0 0 -50 0 -50 45 0 45 0 0 -39 0 -39 -42
2 -43 1 -3 -47 -3 -48 -40 0 -39 0 0 -95 0 -95 -50 0 -50 0 0 -40 0 -40 -45 0
-45 0 0 40 0 40 45 0 45 0 0 95 0 95 50 0 50 0 0 85 0 85 -50 0 -50 0 0 50 0
50 -45 0 -45 0 0 45 0 45 -40 0 -40 0 0 -45 0 -45 -48 0 -47 0 -1 45 -1 45 48
0 49 0 0 135 0 135 40 0 40 0 0 50 0 50 45 0 45 0 0 -50z m180 0 l0 -50 -40 0
-40 0 0 50 0 50 40 0 40 0 0 -50z m1090 -95 l0 -45 -45 0 -45 0 0 45 0 45 45
0 45 0 0 -45z m1360 -320 l0 -95 -45 0 -45 0 0 50 0 50 -50 0 -50 0 0 45 0 45
95 0 95 0 0 -95z m-1990 -225 c0 -71 -3 -130 -7 -130 -32 -1 -241 -2 -250 -1
-10 1 -13 34 -13 131 l0 130 135 0 135 0 0 -130z m170 95 c0 -29 -4 -36 -25
-41 -40 -10 -55 1 -55 41 0 34 1 35 40 35 39 0 40 -1 40 -35z m1460 -95 c0
-97 -3 -130 -12 -131 -7 -1 -67 -1 -133 -1 l-120 0 -3 131 -3 131 136 0 135 0
0 -130z m172 93 c3 -38 3 -38 48 -38 l45 0 3 -47 3 -48 -50 0 -50 0 -3 48 c-3
46 -4 47 -35 46 -27 -2 -33 2 -38 27 -9 38 0 49 40 49 32 0 34 -2 37 -37z
m-2172 -275 l0 -48 -45 0 -45 0 0 48 0 47 45 0 45 0 0 -47z"/>
<path d="M2320 4475 l0 -45 -45 0 -45 0 0 -90 0 -90 45 0 45 0 0 -85 0 -85
-45 0 -45 0 0 40 0 40 -40 0 -40 0 0 -40 0 -40 -50 0 -50 0 0 -45 c0 -42 1
-44 34 -51 19 -3 80 -4 135 -1 l101 4 0 -48 0 -49 135 0 135 0 0 -45 c0 -45 0
-45 -41 -51 -39 -7 -40 -8 -37 -43 l3 -36 70 2 c39 1 78 2 88 2 15 1 17 12 17
86 l0 85 45 0 45 0 0 -135 0 -135 40 0 40 0 0 44 0 44 45 6 c25 4 84 7 132 6
49 -1 94 -1 101 -1 8 1 12 25 12 86 l0 85 -50 0 -50 0 0 -45 c0 -29 -5 -45
-12 -46 -82 -7 -78 -9 -78 43 l0 48 -90 0 -90 0 0 44 c0 46 9 56 56 56 22 0
24 4 24 45 l0 45 50 0 50 0 0 40 0 40 -50 0 -50 0 0 45 0 45 -40 0 -40 0 0 50
0 50 40 0 40 0 0 40 0 40 -40 0 -40 0 0 -40 0 -40 -45 0 -45 0 0 40 0 40 -90
0 -90 0 0 45 0 45 -95 0 -95 0 0 -45z m190 -85 l0 -40 -45 0 -45 0 0 40 0 40
45 0 45 0 0 -40z m180 -269 c0 -101 -3 -130 -14 -134 -8 -3 -67 -5 -133 -4
l-118 2 -3 133 -3 132 136 0 135 0 0 -129z m170 -1 l0 -40 -40 0 -40 0 0 40 0
40 40 0 40 0 0 -40z"/>
<path d="M2510 4120 l0 -40 40 0 40 0 0 40 0 40 -40 0 -40 0 0 -40z"/>
<path d="M1789 3880 c-5 -39 -2 -73 6 -78 6 -4 44 -7 85 -7 l75 0 3 -87 3 -88
-41 0 -41 0 3 -47 3 -48 83 0 82 0 0 -87 0 -88 50 0 50 0 0 50 0 50 40 0 c40
0 40 0 40 38 l0 38 73 -2 c123 -3 118 -7 115 100 l-3 91 -80 2 c-44 1 -86 2
-92 2 -9 1 -13 25 -13 86 l0 85 -90 0 -90 0 0 -44 c0 -49 9 -56 66 -56 l35 0
-3 -132 -3 -133 -45 0 -45 0 -3 133 c-3 128 -3 132 -25 133 -12 1 -26 2 -32 4
-5 1 -16 3 -22 3 -8 1 -13 18 -13 47 l0 45 -85 0 c-49 0 -86 -4 -86 -10z"/>
<path d="M1690 3535 l0 -86 -47 3 c-47 3 -48 3 -48 38 0 33 -1 34 -40 35 -39
0 -40 -1 -40 -35 0 -35 0 -35 -47 -38 l-48 -3 0 -50 0 -49 45 0 c25 0 45 -3
46 -7 0 -5 1 -25 2 -46 l2 -37 -47 0 -48 0 0 -50 0 -50 -45 0 c-36 0 -45 -4
-46 -17 -1 -10 -3 -28 -4 -41 l-2 -23 136 3 136 3 -2 74 c-1 41 1 80 4 88 3 8
22 13 49 13 l44 0 0 94 0 95 48 3 47 3 0 80 0 80 -47 3 -48 3 0 -86z"/>
<path d="M3592 3573 c3 -47 3 -48 38 -49 52 -1 55 2 52 51 l-4 45 -45 0 -44 0
3 -47z"/>
<path d="M4232 3573 c3 -43 6 -48 28 -50 50 -3 60 5 60 53 l0 44 -46 0 -45 0
3 -47z"/>
<path d="M1789 3343 c-1 -5 -3 -25 -4 -45 l-4 -38 50 0 49 0 0 45 0 45 -45 0
c-25 0 -45 -3 -46 -7z"/>
<path d="M2590 3305 l0 -45 50 0 50 0 0 45 0 45 -50 0 -50 0 0 -45z"/>
<path d="M3860 3306 l0 -46 45 0 c41 0 45 2 46 25 1 14 2 33 3 43 1 14 -8 18
-46 20 l-48 3 0 -45z"/>
<path d="M880 3210 l0 -50 40 0 40 0 0 -40 0 -40 95 0 95 0 0 40 0 40 45 0
c25 0 45 5 46 10 0 6 1 24 1 40 0 17 -1 35 -1 40 -1 6 -21 10 -46 10 l-45 0 0
-51 0 -50 -47 3 c-47 3 -47 4 -49 38 -1 19 -2 41 -3 48 -1 8 -25 12 -86 12
l-85 0 0 -50z"/>
<path d="M2420 3210 l0 -50 45 0 45 0 0 50 0 50 -45 0 -45 0 0 -50z"/>
<path d="M1690 3120 l0 -41 48 3 c47 3 47 3 47 38 0 35 -1 35 -48 38 l-47 3 0
-41z"/>
<path d="M1784 3035 l0 -45 48 0 48 0 0 -50 0 -50 -95 0 -95 0 0 51 0 50 -47
-3 -48 -3 1 -47 0 -47 -40 -3 c-39 -3 -41 -4 -42 -38 0 -35 -1 -35 -47 -38
l-47 -3 0 -45 0 -44 45 0 c43 0 45 1 46 30 1 17 2 36 3 43 0 6 19 14 41 17 38
5 40 7 40 40 0 35 0 35 48 38 l47 3 0 -40 0 -41 -49 0 -49 0 2 -42 1 -43 95 0
95 0 0 43 0 42 47 0 48 0 0 40 0 40 85 0 85 0 0 50 0 50 -85 0 -85 0 0 45 0
45 -48 0 -47 0 -1 -45z"/>
<path d="M2320 3035 l0 -45 50 0 50 0 0 45 0 45 -50 0 -50 0 0 -45z"/>
<path d="M2510 2850 l0 -40 40 0 40 0 0 40 0 40 -40 0 -40 0 0 -40z"/>
<path d="M1960 2765 l0 -45 45 0 45 0 0 -50 0 -50 50 0 50 0 0 50 0 50 -50 0
-50 0 0 45 0 45 -45 0 -45 0 0 -45z"/>
<path d="M1784 2673 l1 -48 -95 -3 -95 -3 2 -37 c1 -20 2 -40 2 -44 1 -5 64
-8 141 -8 l140 0 0 95 0 95 -48 0 -49 0 1 -47z"/>
<path d="M2050 2490 l0 -40 90 0 90 0 0 40 0 40 -90 0 -90 0 0 -40z"/>
<path d="M3230 2400 l0 -51 43 5 c23 3 43 5 45 5 1 1 2 21 2 46 l0 45 -45 0
-45 0 0 -50z"/>
<path d="M2050 2311 l0 -51 50 0 50 0 0 45 c0 45 0 45 -34 45 -19 0 -41 3 -50
6 -13 5 -16 -2 -16 -45z"/>
<path d="M1327 2240 c-11 -43 2 -60 49 -60 l44 0 0 40 0 40 -44 0 c-35 0 -45
-4 -49 -20z"/>
<path d="M1240 1963 c0 -59 9 -71 48 -68 39 2 39 1 33 83 -1 7 -16 12 -41 12
-37 0 -40 -2 -40 -27z"/>
<path d="M3050 1942 l0 -47 38 1 c20 0 43 2 50 3 7 0 12 17 12 46 l0 45 -50 0
-50 0 0 -48z"/>
<path d="M1150 1675 l0 -46 48 3 47 3 0 40 0 40 -47 3 -48 3 0 -46z"/>
<path d="M880 2490 l0 -40 40 0 40 0 0 40 0 40 -40 0 -40 0 0 -40z"/>
<path d="M2510 2490 l0 -40 40 0 40 0 0 40 0 40 -40 0 -40 0 0 -40z"/>
<path d="M4130 2489 l0 -40 48 3 c49 3 52 7 43 71 -1 4 -21 7 -46 7 l-45 0 0
-41z"/>
<path d="M3590 1406 l0 -45 -47 -3 -48 -3 0 -45 0 -45 48 -3 47 -3 0 50 0 51
50 0 50 0 -3 43 -4 42 -46 3 -47 3 0 -45z"/>
<path d="M2538 912 c-26 -3 -28 -7 -28 -48 l0 -44 40 0 40 0 0 48 c0 33 -4 48
-12 48 -7 0 -25 -2 -40 -4z"/>
<path d="M4147 912 c-13 -3 -17 -14 -17 -48 l0 -44 45 0 c25 0 45 3 46 8 0 4
2 16 4 27 8 39 -4 60 -34 60 -15 0 -35 -1 -44 -3z"/>
<path d="M3687 4703 c-2 -5 -2 -14 -1 -20 1 -7 2 -24 3 -38 1 -23 5 -25 46
-25 l45 0 0 -50 0 -50 40 0 40 0 0 -85 0 -85 45 0 c33 0 45 4 46 15 1 8 3 20
4 25 1 6 3 17 4 25 1 11 13 15 46 15 l45 0 0 140 0 140 -48 0 -49 0 2 -45 1
-45 -88 0 -88 0 0 45 0 45 -44 0 c-25 0 -47 -3 -49 -7z"/>
<path d="M4130 4395 l0 -315 315 0 315 0 0 315 0 315 -315 0 -315 0 0 -315z
m550 -5 l0 -230 -225 0 -224 0 -3 226 c-2 124 -1 228 1 230 2 2 105 4 228 4
l223 0 0 -230z"/>
<path d="M4320 4385 l0 -135 135 0 135 0 0 135 0 135 -135 0 -135 0 0 -135z"/>
<path d="M357 3982 l-28 -3 3 -92 3 -92 40 1 40 1 3 96 c3 105 9 97 -61 89z"/>
<path d="M4685 3981 c-3 -2 -5 -24 -5 -48 l0 -43 40 0 40 0 0 48 0 48 -35 0
c-20 0 -38 -2 -40 -5z"/>
<path d="M522 3843 l3 -48 40 0 40 0 3 48 3 47 -46 0 -46 0 3 -47z"/>
<path d="M433 3793 c-7 -2 -13 -20 -13 -39 0 -34 0 -34 -45 -34 l-45 0 0 -50
0 -50 95 0 95 0 0 88 0 89 -37 0 c-21 1 -44 -1 -50 -4z"/>
<path d="M330 2855 l0 -135 45 0 45 0 0 85 0 85 50 0 50 0 0 50 0 50 -95 0
-95 0 0 -135z"/>
<path d="M330 2575 l0 -45 45 0 45 0 0 45 0 45 -45 0 -45 0 0 -45z"/>
<path d="M330 2270 l0 -90 95 0 95 0 0 40 0 40 -50 0 -50 0 0 50 0 50 -45 0
-45 0 0 -90z"/>
<path d="M4490 2135 c0 -29 4 -45 13 -46 6 0 23 -2 37 -3 42 -5 50 3 50 50 l0
44 -50 0 -50 0 0 -45z"/>
<path d="M330 2040 l0 -50 45 0 45 0 0 -49 0 -49 43 3 c23 2 45 4 50 4 4 1 7
21 7 46 l0 45 -49 0 -50 0 -3 47 -3 46 -42 4 -43 3 0 -50z"/>
<path d="M1329 1245 c-1 -8 -2 -25 -3 -37 -1 -19 -8 -24 -41 -28 -40 -5 -40
-5 -38 -47 l1 -43 -49 0 -49 0 0 -49 0 -50 -47 -3 -48 -3 0 -80 1 -80 47 -3
47 -3 0 -45 c0 -47 -2 -48 -61 -44 -29 1 -35 -8 -34 -60 l0 -35 95 -5 95 -5
-3 -37 -4 -38 226 0 226 0 0 -95 0 -95 -45 0 c-43 0 -50 5 -46 36 1 7 -3 24
-9 38 -8 23 -15 27 -42 23 l-33 -3 -1 -75 c0 -41 1 -80 4 -86 3 -9 30 -13 88
-13 l84 0 0 39 0 40 48 3 47 3 0 90 0 90 -47 3 -48 3 0 40 0 39 -135 0 -135 0
0 48 0 48 -47 -1 -48 -1 1 -47 1 -47 -41 0 -41 0 3 140 c4 155 10 141 -63 144
-27 1 -30 4 -33 39 l-3 38 48 -3 c46 -3 48 -4 48 -33 0 -36 8 -43 47 -41 22 2
30 -3 34 -19 3 -12 4 -25 3 -31 -7 -36 2 -44 46 -44 l45 0 0 44 c0 44 0 44 40
51 22 4 57 4 78 1 47 -8 64 4 60 40 l-3 29 -87 3 -88 3 0 49 0 49 47 3 46 3 2
83 1 82 -93 0 c-75 0 -93 -3 -94 -15z m91 -110 l0 -45 -45 0 c-25 0 -45 5 -46
10 -1 6 -1 19 -1 30 0 49 1 50 47 50 l45 0 0 -45z m-95 -95 c-1 -44 -1 -45
-37 -48 -35 -3 -36 -2 -40 37 -5 56 -1 62 41 59 36 -3 36 -3 36 -48z"/>
<path d="M880 1040 l0 -50 40 0 40 0 0 50 0 50 -40 0 -40 0 0 -50z"/>
<path d="M343 913 c-10 -4 -13 -77 -13 -319 l0 -314 315 0 315 0 0 314 0 313
-37 7 c-45 7 -562 7 -580 -1z m537 -323 l0 -230 -230 0 -230 0 0 230 0 230
230 0 230 0 0 -230z"/>
<path d="M520 590 l0 -135 132 2 133 2 0 133 0 133 -132 0 -133 0 0 -135z"/>
<path d="M1788 913 c0 -5 -2 -27 -2 -50 l-2 -43 48 0 48 0 0 44 c0 31 -5 46
-16 50 -22 8 -74 7 -76 -1z"/>
<path d="M1516 805 c-3 -9 -6 -29 -6 -45 0 -24 5 -30 31 -35 38 -9 46 -1 51
50 3 39 3 40 -33 43 -26 2 -38 -1 -43 -13z"/>
<path d="M1690 776 c0 -26 3 -46 8 -47 4 0 17 -2 28 -3 12 -1 31 1 43 6 18 6
22 14 19 45 -3 38 -3 38 -50 41 l-48 3 0 -45z"/>
<path d="M3150 679 l0 -49 41 0 40 0 -3 48 c-3 47 -3 47 -40 48 l-38 1 0 -48z"/>
<path d="M1150 506 c0 -49 2 -51 67 -48 18 1 23 -6 28 -42 4 -23 5 -62 3 -87
l-3 -44 38 -3 c31 -3 37 0 38 17 1 12 3 26 4 31 1 6 3 15 4 20 0 6 21 10 47
10 l45 0 -3 48 -3 47 -83 0 c-90 0 -94 3 -89 65 2 23 -2 25 -45 28 l-48 3 0
-45z"/>
<path d="M3050 502 l0 -48 -42 0 -43 1 -3 -47 -3 -48 45 0 46 0 0 -40 0 -40
90 0 91 0 -3 88 -3 87 -37 0 -38 0 0 48 0 47 -50 0 -50 0 0 -48z"/>
<path d="M1057 348 c-2 -7 -3 -24 -2 -38 1 -22 7 -25 48 -28 l47 -3 0 40 0 41
-44 0 c-26 0 -46 -5 -49 -12z"/>
<path d="M2320 320 l0 -40 50 0 50 0 0 40 0 40 -50 0 -50 0 0 -40z"/>
<path d="M4680 320 l0 -40 40 0 40 0 0 40 0 40 -40 0 -40 0 0 -40z"/>
</g>
</svg>
